<svg id="Layer_1" data-name="Layer 1" xmlns="http://www.w3.org/2000/svg" viewBox="0 0 70.8 46.8"><defs><style>.cls-1{font-size:12px;fill:#231f20;font-family:MyriadPro-Regular, Myriad Pro;}.cls-2,.cls-3,.cls-6{fill:#e6af2c;}.cls-3{font-size:8.51px;}.cls-3,.cls-6{font-family:OpenSerif-Book, Open Serif;}.cls-4{letter-spacing:-0.02em;}.cls-5{letter-spacing:-0.02em;}.cls-6{font-size:8.51px;}</style></defs><title>SOFTWARE HOUSE</title><text class="cls-1" transform="translate(9.98 38.31)"> </text><path class="cls-2" d="M8.79,17.58c-.35.75-.66,1.32-.87,1.91A5.42,5.42,0,0,0,13.52,27c1.19-.07,2.36-.37,3.55-.52a35.54,35.54,0,0,1,5.21-.6,5,5,0,0,1,5.07,5.28,7.74,7.74,0,0,0,.1.89c2.05-3.22,1.8-6.13-.58-8.71A2.18,2.18,0,0,1,26.34,22c-.06-1.93,0-3.86,0-5.79,0-2.49.26-2.75,2.73-3,0,0,.06-.11.11-.2H19.33a4.17,4.17,0,0,0,1.35.33c.89.15,1.54.62,1.55,1.59,0,2.26,0,4.52,0,6.82l-8.18,1.48c0-2.13,0-4,0-5.8,0-1.35.62-1.72,1.95-1.29,1,.3,1.89.69,2.84,1l.23-.3c-1.13-1.08-2.22-2.2-3.39-3.22A2.73,2.73,0,0,0,14.14,13c-2.05-.11-4.11-.1-6.16-.13a5,5,0,0,0-.76.12c2.67.55,2.82.72,2.82,3.51v4.73l-.58,0Zm13.89,9.61-.36.4c0,1.32,0,2.64,0,4,0,2.27-.4,2.59-2.58,2-1.24-.32-2.46-.71-4-1.17,2.53,2.82,4.69,5.51,8.75,4.58a10.4,10.4,0,0,1,2.3,0h2.27c-2.58-.61-2.73-.79-2.74-3.48,0-1.11,0-2.22,0-3.33a1.8,1.8,0,0,0-.47-1.23C24.83,28.28,23.74,27.76,22.68,27.19ZM7.24,36.76v.18H17.33c-4-.69-3.17-1.28-3.27-4-.06-1.44,0-2.88,0-4.24l-4-.69c0,.18-.05.43-.05.68,0,1.92,0,3.85,0,5.77,0,1.58-.5,2-2.07,2.2Z"/><path class="cls-2" d="M8.79,17.58l.67,3.73.58,0V16.54c0-2.79-.15-3-2.82-3.51A5,5,0,0,1,8,12.91c2,0,4.11,0,6.16.13a2.73,2.73,0,0,1,1.56.63c1.17,1,2.26,2.14,3.39,3.22l-.23.3c-.95-.35-1.88-.74-2.84-1-1.33-.43-1.92-.06-1.95,1.29-.05,1.83,0,3.67,0,5.8l8.18-1.48c0-2.3,0-4.56,0-6.82,0-1-.66-1.44-1.55-1.59A4.17,4.17,0,0,1,19.33,13h9.82c0,.09-.07.2-.11.2-2.47.28-2.72.54-2.73,3,0,1.93,0,3.86,0,5.79a2.18,2.18,0,0,0,.53,1.33c2.38,2.58,2.63,5.49.58,8.71a7.74,7.74,0,0,1-.1-.89,5,5,0,0,0-5.07-5.28,35.54,35.54,0,0,0-5.21.6c-1.19.15-2.36.45-3.55.52a5.42,5.42,0,0,1-5.6-7.54C8.13,18.9,8.44,18.33,8.79,17.58Z"/><path class="cls-2" d="M22.68,27.19c1.06.57,2.15,1.09,3.14,1.75a1.8,1.8,0,0,1,.47,1.23c.06,1.11,0,2.22,0,3.33,0,2.69.16,2.87,2.74,3.48H26.78a10.4,10.4,0,0,0-2.3,0c-4.06.93-6.22-1.76-8.75-4.58,1.55.46,2.77.85,4,1.17,2.18.57,2.57.25,2.58-2,0-1.32,0-2.64,0-4Z"/><path class="cls-2" d="M7.24,36.76,8,36.68c1.57-.19,2-.62,2.07-2.2.05-1.92,0-3.85,0-5.77,0-.25,0-.5.05-.68l4,.69c0,1.36-.05,2.8,0,4.24.1,2.7-.69,3.29,3.27,4H7.25Z"/><text class="cls-3" transform="translate(30.02 24.61)">Soft<tspan class="cls-4" x="15.57" y="0">w</tspan><tspan x="22.48" y="0">a</tspan><tspan class="cls-5" x="27.31" y="0">r</tspan><tspan x="30.86" y="0">e</tspan></text><text class="cls-6" transform="translate(30.02 33.29)">House</text></svg>